<svg xmlns="http://www.w3.org/2000/svg" width="36" height="36" viewBox="0 0 36 36" fill="none">
  <path d="M23.3101 16.9351L14.8201 8.46005C14.6807 8.31946 14.5147 8.20787 14.332 8.13172C14.1492 8.05557 13.9531 8.01636 13.7551 8.01636C13.5571 8.01636 13.361 8.05557 13.1782 8.13172C12.9954 8.20787 12.8295 8.31946 12.6901 8.46005C12.4107 8.7411 12.2539 9.12128 12.2539 9.51755C12.2539 9.91383 12.4107 10.294 12.6901 10.5751L20.1151 18.0751L12.6901 25.5001C12.4107 25.7811 12.2539 26.1613 12.2539 26.5576C12.2539 26.9538 12.4107 27.334 12.6901 27.6151C12.829 27.7568 12.9947 27.8695 13.1775 27.9468C13.3603 28.024 13.5566 28.0642 13.7551 28.0651C13.9536 28.0642 14.1499 28.024 14.3327 27.9468C14.5155 27.8695 14.6812 27.7568 14.8201 27.6151L23.3101 19.1401C23.4624 18.9996 23.5839 18.8291 23.667 18.6394C23.7501 18.4496 23.793 18.2447 23.793 18.0376C23.793 17.8304 23.7501 17.6255 23.667 17.4357C23.5839 17.246 23.4624 17.0755 23.3101 16.9351Z" fill="black"/>
</svg>